# xmcd
#
# Track frame offsets: 
#        150
#        11152
#        23957
#        35790
#        47812
#        60550
#        74395
#        87960
#        101415
#        114037
#        126205
#        138732
#        150767
#        163142
#        174285
#        184437
#        197047
#        209745
#        219985
#        232430
#        245405
#        258567
#        270647
#        282487
#
# Disc length: 3940 seconds
#
# Revision: 1
# Processed by: cddbd v1.5.2PL0 Copyright (c) Steve Scherf et al.
# Submitted via: ExactAudioCopy v1.1
#
DISCID=6c0f6218
DTITLE=Various Artist - The New Orleans Sessions 1950-1953 (Bear Fami
DTITLE=ly) - Disc 2
DYEAR=2007
DGENRE=R&B
TTITLE0=Little Joe Gaines - She Won't Leave No More (mono)
TTITLE1=Little Joe Gaines - Snuff Dipper (mono)
TTITLE2=Dwine Craven - Mercury Boogie (mono)
TTITLE3=Dwine Craven - New Way Of Loving (mono)
TTITLE4=The Silvertone Singers - Bye And Bye (mono)
TTITLE5=The Silvertone Singers - What Are They doing In Heaven Today (
TTITLE5=mono)
TTITLE6=The Silvertone Singers - Call On Jesus In Secret Prayer (mono)
TTITLE7=The Silvertone Singers - Rest From Labor (mono)
TTITLE8=Pat Valdelar - Keep Your Hands On Your Heart (mono)
TTITLE9=Pat Valdelar - Baby, Rock Me (mono)
TTITLE10=Ray Johnson - Boogie The Blues (mono)
TTITLE11=Ray Johnson - House Of Blues (mono)
TTITLE12=Ray Johnson - I'll Never Let You Go (mono)
TTITLE13=Ray Johnson - Smilin' Blues (mono)
TTITLE14=Herbert Moore - Something's Wrong (mono)
TTITLE15=Herbert Moore - Five Long Letters (mono)
TTITLE16=Alma Mondy - Miss Lollypop's Confession (alt - take 1) (mono)
TTITLE17=Alma Mondy - Love Troubles (alt - take 3) (mono)
TTITLE18=Alma Mondy - Just As Soon As I Go Home (alt - take 1) (mono)
TTITLE19=Roy Byrd - Her Mind Is Gone (alt - take 2) (mono)
TTITLE20=Roy Byrd - Hadacol Bounce (alt - take 1) (mono)
TTITLE21=Roy Byrd - Longhair Stomp (alt - take 1) (mono)
TTITLE22=Roy Byrd - Between The Night And Day (alt - take 1) (mono)
TTITLE23=George Miller and His Mid-Driffs - Bat-Lee Swing (alt - take 3)
TTITLE23=(mono)
EXTD=
EXTT0=
EXTT1=
EXTT2=
EXTT3=
EXTT4=
EXTT5=
EXTT6=
EXTT7=
EXTT8=
EXTT9=
EXTT10=
EXTT11=
EXTT12=
EXTT13=
EXTT14=
EXTT15=
EXTT16=
EXTT17=
EXTT18=
EXTT19=
EXTT20=
EXTT21=
EXTT22=
EXTT23=
PLAYORDER=
